<svg width="80" height="80" viewBox="0 0 80 80" fill="none" xmlns="http://www.w3.org/2000/svg">
<path d="M63.6667 60V33.3333H21.6667V60C21.6667 62.6522 22.6149 65.1957 24.3027 67.0711C25.9906 68.9464 28.2797 70 30.6667 70H54.6667C57.0536 70 59.3428 68.9464 61.0306 67.0711C62.7185 65.1957 63.6667 62.6522 63.6667 60Z" fill="white" stroke="#307510" stroke-width="4" stroke-linecap="round" stroke-linejoin="round"/>
<path d="M6.66669 33.3333H66.6667H6.66669ZM27.6667 13.3333V20V13.3333ZM42.6667 10V20V10ZM57.6667 13.3333V20V13.3333Z" fill="#307510"/>
<path d="M6.66669 33.3333H66.6667M27.6667 13.3333V20M42.6667 10V20M57.6667 13.3333V20" stroke="#307510" stroke-width="4" stroke-linecap="round" stroke-linejoin="round"/>
</svg>
