<svg width="36" height="36" viewBox="0 0 36 36" fill="none" xmlns="http://www.w3.org/2000/svg">
<path d="M19.542 3C21.2295 3.0045 22.086 3.0135 22.8255 3.0345L23.1165 3.045C23.4525 3.057 23.784 3.072 24.1845 3.09C25.7805 3.165 26.8695 3.417 27.825 3.7875C28.815 4.1685 29.649 4.6845 30.483 5.517C31.2457 6.26684 31.8359 7.17388 32.2125 8.175C32.583 9.1305 32.835 10.2195 32.91 11.817C32.928 12.216 32.943 12.5475 32.955 12.885L32.964 13.176C32.9865 13.914 32.9955 14.7705 32.9985 16.458L33 17.577V19.542C33.0037 20.6361 32.9922 21.7302 32.9655 22.824L32.9565 23.115C32.9445 23.4525 32.9295 23.784 32.9115 24.183C32.8365 25.7805 32.5815 26.868 32.2125 27.825C31.837 28.8267 31.2467 29.7339 30.483 30.483C29.7329 31.2455 28.826 31.8356 27.825 32.2125C26.8695 32.583 25.7805 32.835 24.1845 32.91C23.8286 32.9268 23.4726 32.9418 23.1165 32.955L22.8255 32.964C22.086 32.985 21.2295 32.9955 19.542 32.9985L18.423 33H16.4595C15.3649 33.0038 14.2703 32.9923 13.176 32.9655L12.885 32.9565C12.5289 32.943 12.1729 32.9275 11.817 32.91C10.221 32.835 9.132 32.583 8.175 32.2125C7.174 31.8366 6.26733 31.2463 5.5185 30.483C4.75507 29.7334 4.16434 28.8263 3.7875 27.825C3.417 26.8695 3.165 25.7805 3.09 24.183C3.07329 23.8271 3.05829 23.4711 3.045 23.115L3.0375 22.824C3.00986 21.7302 2.99736 20.6361 3 19.542V16.458C2.99581 15.3639 3.00681 14.2698 3.033 13.176L3.0435 12.885C3.0555 12.5475 3.0705 12.216 3.0885 11.817C3.1635 10.2195 3.4155 9.132 3.786 8.175C4.16267 7.17286 4.75458 6.26554 5.52 5.517C6.26864 4.75421 7.17472 4.16398 8.175 3.7875C9.132 3.417 10.2195 3.165 11.817 3.09C12.216 3.072 12.549 3.057 12.885 3.045L13.176 3.036C14.2698 3.00935 15.3639 2.99785 16.458 3.0015L19.542 3ZM18 10.5C16.0109 10.5 14.1032 11.2902 12.6967 12.6967C11.2902 14.1032 10.5 16.0109 10.5 18C10.5 19.9891 11.2902 21.8968 12.6967 23.3033C14.1032 24.7098 16.0109 25.5 18 25.5C19.9891 25.5 21.8968 24.7098 23.3033 23.3033C24.7098 21.8968 25.5 19.9891 25.5 18C25.5 16.0109 24.7098 14.1032 23.3033 12.6967C21.8968 11.2902 19.9891 10.5 18 10.5ZM18 13.5C18.5909 13.4999 19.1761 13.6162 19.7221 13.8423C20.2681 14.0683 20.7643 14.3997 21.1822 14.8175C21.6001 15.2353 21.9317 15.7313 22.1579 16.2772C22.3842 16.8232 22.5007 17.4083 22.5007 17.9993C22.5008 18.5902 22.3846 19.1754 22.1585 19.7214C21.9324 20.2674 21.6011 20.7635 21.1833 21.1814C20.7655 21.5994 20.2694 21.9309 19.7235 22.1572C19.1776 22.3834 18.5924 22.4999 18.0015 22.5C16.808 22.5 15.6634 22.0259 14.8195 21.182C13.9756 20.3381 13.5015 19.1935 13.5015 18C13.5015 16.8065 13.9756 15.6619 14.8195 14.818C15.6634 13.9741 16.808 13.5 18.0015 13.5M25.8765 8.25C25.3792 8.25 24.9023 8.44754 24.5507 8.79917C24.199 9.15081 24.0015 9.62772 24.0015 10.125C24.0015 10.6223 24.199 11.0992 24.5507 11.4508C24.9023 11.8025 25.3792 12 25.8765 12C26.3738 12 26.8507 11.8025 27.2023 11.4508C27.554 11.0992 27.7515 10.6223 27.7515 10.125C27.7515 9.62772 27.554 9.15081 27.2023 8.79917C26.8507 8.44754 26.3738 8.25 25.8765 8.25Z" fill="#307510"/>
</svg>
