<svg width="60" height="60" viewBox="0 0 60 60" fill="none" xmlns="http://www.w3.org/2000/svg">
<path d="M29.8828 2.61444C27.3984 2.61444 25.1367 3.87772 23.9649 5.85233L23.4492 6.72186L22.5586 6.24374C21.7266 5.79257 20.7773 5.5535 19.8281 5.5535C16.5117 5.5535 13.8164 8.31561 13.8164 11.7891C13.8164 14.8945 15.9961 17.4844 18.9141 17.9531L19.8047 18.0937V24.3516C26.5899 23.0508 33.3984 22.9922 40.1953 24.3516V16.1836L40.7578 15.8789C42.5977 14.9062 43.8164 12.8203 43.8164 10.4707C43.8164 7.09569 41.3906 4.48007 38.4961 4.48007C37.7344 4.48007 36.9727 4.66874 36.2813 5.03319L35.5547 5.40819L35.0156 4.81171C33.75 3.43241 31.875 2.61444 29.8828 2.61444ZM30 25.4414C27 25.4414 24.0117 25.7226 21.0117 26.2617C20.9063 26.9648 20.8594 27.6914 20.8594 28.4414C20.8594 31.8398 21.9375 34.9101 23.625 37.0781C25.3125 39.2461 27.5508 40.5117 30 40.5117C32.4492 40.5117 34.6875 39.2461 36.375 37.0781C38.0625 34.9101 39.1406 31.8398 39.1406 28.4414C39.1406 27.6914 39.082 26.9531 38.9883 26.25C35.9883 25.6992 33 25.4297 30 25.4414ZM24.457 40.7812L14.0039 44.2617L10.725 57.3867H37.6875L35.9883 45.4687L38.0742 45.1641L39.8203 57.3867H49.2774L45.9961 44.2617L35.543 40.7812C33.9258 41.9414 32.0274 42.6211 30 42.6211C27.9727 42.6211 26.0742 41.9414 24.457 40.7812ZM32.5781 46.957C32.732 46.957 32.8844 46.9873 33.0266 47.0462C33.1688 47.1051 33.298 47.1914 33.4068 47.3002C33.5156 47.409 33.6019 47.5382 33.6608 47.6804C33.7197 47.8226 33.75 47.975 33.75 48.1289C33.75 48.2828 33.7197 48.4352 33.6608 48.5774C33.6019 48.7196 33.5156 48.8488 33.4068 48.9576C33.298 49.0664 33.1688 49.1527 33.0266 49.2116C32.8844 49.2705 32.732 49.3008 32.5781 49.3008C32.4242 49.3008 32.2718 49.2705 32.1297 49.2116C31.9875 49.1527 31.8583 49.0664 31.7495 48.9576C31.6406 48.8488 31.5543 48.7196 31.4954 48.5774C31.4365 48.4352 31.4062 48.2828 31.4063 48.1289C31.4062 47.975 31.4365 47.8226 31.4954 47.6804C31.5543 47.5382 31.6406 47.409 31.7495 47.3002C31.8583 47.1914 31.9875 47.1051 32.1297 47.0462C32.2718 46.9873 32.4242 46.957 32.5781 46.957ZM33.3984 52.3476C33.7092 52.3476 34.0073 52.4711 34.2271 52.6909C34.4469 52.9107 34.5703 53.2087 34.5703 53.5195C34.5703 53.8303 34.4469 54.1284 34.2271 54.3482C34.0073 54.5679 33.7092 54.6914 33.3984 54.6914C33.0876 54.6914 32.7896 54.5679 32.5698 54.3482C32.35 54.1284 32.2266 53.8303 32.2266 53.5195C32.2266 53.2087 32.35 52.9107 32.5698 52.6909C32.7896 52.4711 33.0876 52.3476 33.3984 52.3476Z" fill="#307510"/>
</svg>
