<svg width="44" height="44" viewBox="0 0 44 44" fill="none" xmlns="http://www.w3.org/2000/svg">
<path d="M34.8333 7.33325H9.16667C8.51836 7.33325 7.8966 7.59079 7.43818 8.04921C6.97976 8.50764 6.72222 9.12939 6.72222 9.7777V35.4444C6.72222 36.0927 6.97976 36.7144 7.43818 37.1728C7.8966 37.6313 8.51836 37.8888 9.16667 37.8888H34.8333C35.4816 37.8888 36.1034 37.6313 36.5618 37.1728C37.0202 36.7144 37.2778 36.0927 37.2778 35.4444V9.7777C37.2778 9.12939 37.0202 8.50764 36.5618 8.04921C36.1034 7.59079 35.4816 7.33325 34.8333 7.33325Z" fill="#307510"/>
<path d="M22.5714 37.8943H28.3769" stroke="#BDC9B8" stroke-width="2" stroke-miterlimit="10"/>
<path d="M29.6389 16.4046H32.5038V12.1079C30.5934 12.1079 22.9546 10.1982 22.9546 18.3144V21.1786H19.1351V25.9532H22.9546V37.2979L27.7292 37.2894V25.9539H32.0259L32.5032 21.1792H27.7292V18.315C27.7292 16.4052 29.1616 16.4046 29.6389 16.4046Z" fill="#BDC9B8"/>
</svg>
