<svg width="60" height="60" viewBox="0 0 60 60" fill="none" xmlns="http://www.w3.org/2000/svg">
<g clip-path="url(#clip0_7_154)">
<path d="M29.6465 30.3531L29.6467 30.3533L37.1297 37.8363C37.2231 37.9227 37.3461 37.9704 37.4736 37.9693C37.6047 37.9681 37.7301 37.9155 37.8228 37.8228C37.9155 37.7301 37.9681 37.6047 37.9693 37.4736C37.9704 37.3461 37.9227 37.2231 37.8363 37.1297L31.0858 30.3792L30.5 29.7934V28.965V17.5C30.5 17.3674 30.4473 17.2402 30.3535 17.1464C30.2598 17.0527 30.1326 17 30 17C29.8674 17 29.7402 17.0527 29.6464 17.1464C29.5527 17.2402 29.5 17.3674 29.5 17.5V29.9996L29.6465 30.3531ZM29.6465 30.3531C29.5528 30.2594 29.5001 30.1324 29.5 30L29.6465 30.3531ZM57 30C57 15.0879 44.9121 3 30 3C15.0879 3 3 15.0879 3 30C3 44.9121 15.0879 57 30 57C44.9121 57 57 44.9121 57 30Z" fill="white" stroke="#307510" stroke-width="4"/>
</g>
<defs>
<clipPath id="clip0_7_154">
<rect width="60" height="60" fill="white"/>
</clipPath>
</defs>
</svg>
