<svg width="61" height="60" viewBox="0 0 61 60" fill="none" xmlns="http://www.w3.org/2000/svg">
<path d="M30.3333 5C43.0283 5 53.5133 14.4625 55.1208 26.7175C51.2733 23.7176 46.4619 22.2276 41.5924 22.5279C36.7228 22.8281 32.131 24.898 28.6811 28.3478C25.2313 31.7977 23.1615 36.3895 22.8612 41.2591C22.5609 46.1286 24.051 50.94 27.0508 54.7875C14.7958 53.18 5.33331 42.695 5.33331 30C5.33331 16.1925 16.5258 5 30.3333 5ZM30.3333 9.5825C24.5408 9.5825 19.3083 11.9975 15.5933 15.8725C16.0358 16.18 16.4208 16.6125 16.6858 17.2075C17.1958 18.35 17.1958 19.5275 17.1958 20.57C17.1958 21.39 17.1958 22.17 17.4583 22.7325C17.8183 23.5025 19.3733 23.8325 20.7458 24.1175L20.7958 24.13C21.2708 24.23 21.7583 24.33 22.2033 24.455C23.4683 24.805 24.4483 25.9425 25.2308 26.855C25.5558 27.2325 26.0383 27.79 26.2808 27.93C26.4058 27.84 26.8083 27.4025 27.0058 26.685C27.1608 26.135 27.1158 25.65 26.8933 25.385C25.4933 23.735 25.5708 20.56 26.0033 19.3875C26.6833 17.54 28.8083 17.6775 30.3633 17.7775H30.3783C30.9533 17.815 31.4933 17.8525 31.8983 17.8C33.0758 17.65 33.6358 16.26 33.9858 15.39C34.0983 15.1125 34.1883 14.8875 34.2708 14.775C35.0008 13.775 37.2358 12.2675 38.6208 11.3375C36.0121 10.1775 33.1884 9.57952 30.3333 9.5825ZM57.8333 42.5C57.8333 44.4698 57.4453 46.4204 56.6915 48.2402C55.9377 50.0601 54.8328 51.7137 53.4399 53.1066C52.047 54.4995 50.3934 55.6044 48.5736 56.3582C46.7537 57.112 44.8031 57.5 42.8333 57.5C40.8635 57.5 38.9129 57.112 37.0931 56.3582C35.2732 55.6044 33.6196 54.4995 32.2267 53.1066C30.8338 51.7137 29.7289 50.0601 28.9751 48.2402C28.2213 46.4204 27.8333 44.4698 27.8333 42.5C27.8333 38.5218 29.4137 34.7064 32.2267 31.8934C35.0398 29.0804 38.8551 27.5 42.8333 27.5C46.8116 27.5 50.6269 29.0804 53.4399 31.8934C56.253 34.7064 57.8333 38.5218 57.8333 42.5ZM40.3333 45H50.3333V40H45.3333V35H40.3333V45Z" fill="#307510"/>
</svg>
