<svg width="60" height="60" viewBox="0 0 60 60" fill="none" xmlns="http://www.w3.org/2000/svg">
<mask id="path-1-outside-1_7_152" maskUnits="userSpaceOnUse" x="1.00034" y="0.99939" width="58" height="59" fill="black">
<rect fill="white" x="1.00034" y="0.99939" width="58" height="59"/>
<path fill-rule="evenodd" clip-rule="evenodd" d="M40.3425 11.82L44.9175 16.395C51.64 23.12 55 26.48 55 30.655C55 34.8325 51.64 38.1925 44.9175 44.915C38.1925 51.64 34.8325 55 30.655 55C26.48 55 23.1175 51.64 16.395 44.9175L11.82 40.3425C7.9575 36.4775 6.025 34.5475 5.3075 32.04C4.5875 29.5325 5.2025 26.87 6.4325 21.5475L7.14 18.4775C8.1725 13.9975 8.69 11.7575 10.2225 10.2225C11.7575 8.69 13.9975 8.1725 18.4775 7.14L21.5475 6.43C26.8725 5.2025 29.5325 4.5875 32.04 5.305C34.5475 6.025 36.48 7.9575 40.3425 11.82ZM27.865 35.82C26.1825 34.14 26.195 31.725 27.2025 29.8125C26.9531 29.4522 26.8377 29.016 26.8764 28.5795C26.9152 28.1431 27.1055 27.7339 27.4145 27.4232C27.7234 27.1125 28.1314 26.9198 28.5677 26.8785C29.0039 26.8373 29.4408 26.9502 29.8025 27.1975C30.6525 26.7475 31.585 26.5075 32.515 26.5175C33.0123 26.5221 33.4874 26.7241 33.8357 27.0791C34.184 27.434 34.3771 27.9127 34.3725 28.41C34.3679 28.9073 34.1659 29.3824 33.811 29.7307C33.456 30.0791 32.9773 30.2721 32.48 30.2675C31.9011 30.2889 31.354 30.5377 30.9575 30.96C29.99 31.9275 30.2425 32.8975 30.515 33.17C30.79 33.4425 31.7575 33.695 32.725 32.7275C34.685 30.7675 38.07 30.1175 40.2375 32.285C41.92 33.9675 41.9075 36.3825 40.9 38.295C41.1479 38.6553 41.2619 39.091 41.2225 39.5266C41.1831 39.9621 40.9927 40.3702 40.6842 40.6802C40.3756 40.9902 39.9685 41.1826 39.5331 41.2241C39.0977 41.2656 38.6615 41.1536 38.3 40.9075C37.1781 41.5228 35.8768 41.7279 34.62 41.4875C34.1327 41.3874 33.7051 41.0978 33.4313 40.6824C33.1575 40.267 33.0599 39.7598 33.16 39.2725C33.2601 38.7852 33.5497 38.3576 33.9651 38.0838C34.3805 37.81 34.8877 37.7124 35.375 37.8125C35.8175 37.905 36.5325 37.76 37.145 37.1475C38.1125 36.1775 37.86 35.21 37.5875 34.9375C37.3125 34.665 36.345 34.4125 35.3775 35.38C33.4175 37.34 30.0325 37.99 27.865 35.82ZM25.05 25.7325C25.5142 25.2681 25.8824 24.7168 26.1336 24.1102C26.3848 23.5035 26.514 22.8532 26.5139 22.1966C26.5138 21.54 26.3843 20.8898 26.1329 20.2832C25.8815 19.6766 25.5131 19.1255 25.0488 18.6613C24.5844 18.197 24.0331 17.8288 23.4264 17.5776C22.8197 17.3265 22.1695 17.1973 21.5129 17.1974C20.8562 17.1975 20.2061 17.3269 19.5995 17.5783C18.9929 17.8297 18.4417 18.1981 17.9775 18.6625C17.04 19.6004 16.5134 20.8723 16.5136 22.1984C16.5139 23.5245 17.0409 24.7962 17.9788 25.7338C18.9166 26.6713 20.1885 27.1979 21.5146 27.1976C22.8408 27.1974 24.1125 26.6704 25.05 25.7325Z"/>
</mask>
<path d="M40.3425 11.82L43.1709 8.99158H43.1709L40.3425 11.82ZM44.9175 16.395L47.7465 13.5671L47.7459 13.5666L44.9175 16.395ZM16.395 44.9175L19.2234 42.0891H19.2234L16.395 44.9175ZM11.82 40.3425L8.99066 43.17L8.99157 43.1709L11.82 40.3425ZM5.3075 32.04L9.15316 30.9396L9.15215 30.9361L5.3075 32.04ZM6.4325 21.5475L10.3298 22.4481L10.3303 22.4458L6.4325 21.5475ZM7.14 18.4775L3.24218 17.5792L3.24217 17.5792L7.14 18.4775ZM10.2225 10.2225L7.39638 7.39177L7.39177 7.39638L10.2225 10.2225ZM18.4775 7.14L19.3758 11.0378L19.3788 11.0371L18.4775 7.14ZM21.5475 6.43L20.649 2.53222L20.6462 2.53287L21.5475 6.43ZM32.04 5.305L33.1439 1.46036L33.1404 1.45934L32.04 5.305ZM27.865 35.82L30.6951 32.9932L30.6913 32.9895L27.865 35.82ZM27.2025 29.8125L30.7415 31.6768L31.8722 29.5303L30.4912 27.5356L27.2025 29.8125ZM29.8025 27.1975L27.5446 30.4993L29.5388 31.8631L31.6741 30.7327L29.8025 27.1975ZM32.515 26.5175L32.472 30.5173L32.4777 30.5173L32.515 26.5175ZM32.48 30.2675L32.5173 26.2677L32.4248 26.2668L32.3323 26.2702L32.48 30.2675ZM30.9575 30.96L33.7859 33.7884L33.8304 33.744L33.8734 33.6982L30.9575 30.96ZM30.515 33.17L27.6866 35.9984L27.693 36.0049L27.6995 36.0113L30.515 33.17ZM40.9 38.295L37.361 36.4307L36.2342 38.5698L37.6043 40.5618L40.9 38.295ZM38.3 40.9075L40.551 37.601L38.5252 36.2219L36.3764 37.4004L38.3 40.9075ZM34.62 41.4875L33.815 45.4057L33.8417 45.4111L33.8684 45.4163L34.62 41.4875ZM35.375 37.8125L36.1935 33.8971L36.18 33.8943L35.375 37.8125ZM37.145 37.1475L39.9734 39.9759L39.9771 39.9723L37.145 37.1475ZM37.5875 34.9375L40.4159 32.1091L40.4095 32.1026L40.403 32.0962L37.5875 34.9375ZM25.05 25.7325L27.8789 28.5604L25.05 25.7325ZM17.9775 18.6625L20.8064 21.4904L17.9775 18.6625ZM37.5141 14.6484L42.0891 19.2234L47.7459 13.5666L43.1709 8.99158L37.5141 14.6484ZM42.0885 19.2229C45.5299 22.6655 47.82 24.9682 49.2995 26.9075C50.7086 28.7544 51 29.7938 51 30.655H59C59 27.3412 57.6115 24.6131 55.6599 22.0551C53.7787 19.5893 51.0276 16.8495 47.7465 13.5671L42.0885 19.2229ZM51 30.655C51 31.5179 50.7081 32.5581 49.2995 34.4044C47.8203 36.3433 45.5303 38.6453 42.0891 42.0866L47.7459 47.7434C51.0272 44.4622 53.7785 41.7229 55.6599 39.2568C57.6119 36.6982 59 33.9696 59 30.655H51ZM42.0891 42.0866C38.6466 45.5291 36.3439 47.8197 34.4047 49.2993C32.558 50.7082 31.5178 51 30.655 51V59C33.9697 59 36.6983 57.6118 39.2572 55.6595C41.7236 53.7778 44.4634 51.0259 47.7459 47.7434L42.0891 42.0866ZM30.655 51C29.7936 51 28.7534 50.7083 26.9063 49.2993C24.9671 47.8201 22.6643 45.53 19.2234 42.0891L13.5666 47.7459C16.8482 51.0275 19.5879 53.7786 22.0543 55.66C24.6128 57.6117 27.3414 59 30.655 59V51ZM19.2234 42.0891L14.6484 37.5141L8.99157 43.1709L13.5666 47.7459L19.2234 42.0891ZM14.6493 37.515C12.6641 35.5285 11.3756 34.2341 10.4694 33.1361C9.61771 32.1041 9.30799 31.4807 9.15316 30.9396L1.46184 33.1404C2.02452 35.1068 3.03979 36.7021 4.29936 38.2283C5.50439 39.6884 7.11339 41.2915 8.99066 43.17L14.6493 37.515ZM9.15215 30.9361C8.99651 30.394 8.92881 29.7 9.10421 28.3739C9.29082 26.9631 9.69784 25.1827 10.3298 22.4481L2.53521 20.6469C1.93716 23.2348 1.42169 25.4469 1.17329 27.3249C0.913697 29.2875 0.898497 31.1785 1.46286 33.144L9.15215 30.9361ZM10.3303 22.4458L11.0378 19.3758L3.24217 17.5792L2.53467 20.6492L10.3303 22.4458ZM11.0378 19.3758C11.5725 17.0557 11.9105 15.613 12.2773 14.5435C12.614 13.5621 12.8682 13.234 13.0532 13.0486L7.39177 7.39638C6.04435 8.74601 5.27353 10.3054 4.71016 11.9478C4.17701 13.5021 3.73997 15.4193 3.24218 17.5792L11.0378 19.3758ZM13.0486 13.0532C13.234 12.8682 13.5621 12.614 14.5435 12.2773C15.6129 11.9105 17.0557 11.5725 19.3758 11.0378L17.5792 3.24218C15.4193 3.73998 13.5021 4.17701 11.9478 4.71016C10.3054 5.27353 8.746 6.04435 7.39638 7.39177L13.0486 13.0532ZM19.3788 11.0371L22.4488 10.3271L20.6462 2.53287L17.5762 3.24287L19.3788 11.0371ZM22.446 10.3278C25.1824 9.69699 26.9633 9.29033 28.3749 9.10358C29.7018 8.92804 30.3964 8.99523 30.9396 9.15066L33.1404 1.45934C31.1761 0.897272 29.287 0.913217 27.3257 1.17268C25.4492 1.42093 23.2376 1.93552 20.649 2.53222L22.446 10.3278ZM30.9361 9.14965C31.4793 9.30563 32.1046 9.61695 33.1369 10.469C34.235 11.3753 35.5296 12.664 37.5141 14.6484L43.1709 8.99158C41.2929 7.11351 39.69 5.50472 38.2293 4.29911C36.7029 3.03931 35.1082 2.02438 33.1439 1.46036L30.9361 9.14965ZM30.6913 32.9895C30.5739 32.8722 30.5262 32.7651 30.5131 32.5957C30.4965 32.3805 30.5468 32.0463 30.7415 31.6768L23.6635 27.9482C22.077 30.9598 21.7872 35.4039 25.0387 38.6505L30.6913 32.9895ZM30.4912 27.5356C30.7739 27.9439 30.9047 28.4383 30.8608 28.933L22.8921 28.2261C22.7708 29.5937 23.1322 30.9606 23.9138 32.0894L30.4912 27.5356ZM30.8608 28.933C30.8169 29.4277 30.6012 29.8913 30.251 30.2435L24.5779 24.6029C23.6099 25.5766 23.0134 26.8585 22.8921 28.2261L30.8608 28.933ZM30.251 30.2435C29.9009 30.5956 29.4384 30.8141 28.944 30.8608L28.1913 22.8963C26.8244 23.0255 25.546 23.6293 24.5779 24.6029L30.251 30.2435ZM28.944 30.8608C28.4497 30.9075 27.9545 30.7796 27.5446 30.4993L32.0604 23.8957C30.9271 23.1207 29.5582 22.7671 28.1913 22.8963L28.944 30.8608ZM31.6741 30.7327C31.9799 30.5707 32.2584 30.515 32.472 30.5173L32.558 22.5177C30.9116 22.5 29.3251 22.9243 27.931 23.6624L31.6741 30.7327ZM32.4777 30.5173C31.9141 30.5121 31.3758 30.2832 30.981 29.881L36.6904 24.2771C35.5989 23.1651 34.1104 22.5322 32.5523 22.5177L32.4777 30.5173ZM30.981 29.881C30.5862 29.4788 30.3674 28.9362 30.3727 28.3727L38.3723 28.4473C38.3869 26.8892 37.7819 25.3892 36.6904 24.2771L30.981 29.881ZM30.3727 28.3727C30.3779 27.8091 30.6068 27.2708 31.009 26.876L36.6129 32.5854C37.7249 31.4939 38.3578 30.0054 38.3723 28.4473L30.3727 28.3727ZM31.009 26.876C31.4112 26.4812 31.9538 26.2624 32.5173 26.2677L32.4427 34.2673C34.0008 34.2819 35.5008 33.6769 36.6129 32.5854L31.009 26.876ZM32.3323 26.2702C30.7009 26.3305 29.1591 27.0318 28.0416 28.2218L33.8734 33.6982C33.5489 34.0437 33.1013 34.2473 32.6277 34.2648L32.3323 26.2702ZM28.1291 28.1316C25.9271 30.3336 25.5434 33.8552 27.6866 35.9984L33.3434 30.3416C33.8348 30.8329 34.0456 31.3272 34.1376 31.6106C34.2459 31.944 34.2819 32.267 34.2641 32.5642C34.2246 33.2261 33.933 33.6413 33.7859 33.7884L28.1291 28.1316ZM27.6995 36.0113C29.8367 38.1291 33.3432 37.7662 35.5534 35.5559L29.8966 29.8991C30.0424 29.7533 30.4577 29.4606 31.1216 29.4209C31.4196 29.4031 31.7424 29.4393 32.0746 29.5471C32.3585 29.6392 32.8451 29.8477 33.3305 30.3287L27.6995 36.0113ZM35.5534 35.5559C35.9099 35.1994 36.3989 34.9789 36.8024 34.9385C36.9851 34.9202 37.1088 34.9422 37.1828 34.9664C37.2461 34.987 37.3183 35.0227 37.4091 35.1134L43.0659 29.4566C38.8309 25.2216 32.8601 26.9356 29.8966 29.8991L35.5534 35.5559ZM37.4091 35.1134C37.5282 35.2326 37.5762 35.3414 37.5894 35.5114C37.606 35.7271 37.5556 36.0613 37.361 36.4307L44.439 40.1593C46.0262 37.1463 46.3139 32.7045 43.0659 29.4566L37.4091 35.1134ZM37.6043 40.5618C37.3234 40.1534 37.1941 39.6597 37.2388 39.166L45.2062 39.8871C45.3297 38.5223 44.9723 37.1573 44.1957 36.0282L37.6043 40.5618ZM37.2388 39.166C37.2835 38.6724 37.4993 38.2099 37.8489 37.8586L43.5194 43.5019C44.486 42.5305 45.0827 41.2519 45.2062 39.8871L37.2388 39.166ZM37.8489 37.8586C38.1986 37.5072 38.6601 37.2892 39.1535 37.2422L39.9127 45.2061C41.2769 45.076 42.5527 44.4732 43.5194 43.5019L37.8489 37.8586ZM39.1535 37.2422C39.6469 37.1951 40.1412 37.322 40.551 37.601L36.049 44.214C37.1818 44.9852 38.5485 45.3361 39.9127 45.2061L39.1535 37.2422ZM36.3764 37.4004C36.0701 37.5684 35.7148 37.6244 35.3716 37.5588L33.8684 45.4163C36.0388 45.8315 38.2861 45.4773 40.2236 44.4146L36.3764 37.4004ZM35.425 37.5693C35.9768 37.6827 36.461 38.0106 36.771 38.481L30.0915 42.8838C30.9492 44.1849 32.2886 45.0921 33.815 45.4057L35.425 37.5693ZM36.771 38.481C37.0811 38.9514 37.1915 39.5256 37.0782 40.0775L29.2418 38.4675C28.9282 39.994 29.2339 41.5826 30.0915 42.8838L36.771 38.481ZM37.0782 40.0775C36.9648 40.6293 36.6369 41.1135 36.1665 41.4235L31.7638 34.744C30.4626 35.6016 29.5554 36.941 29.2418 38.4675L37.0782 40.0775ZM36.1665 41.4235C35.6961 41.7336 35.1219 41.844 34.57 41.7307L36.18 33.8943C34.6535 33.5807 33.0649 33.8864 31.7638 34.744L36.1665 41.4235ZM34.5565 41.7279C36.4676 42.1274 38.5181 41.4312 39.9734 39.9759L34.3166 34.3191C34.4543 34.1813 34.6663 34.0359 34.9566 33.9413C35.2099 33.8588 35.6341 33.7802 36.1935 33.8971L34.5565 41.7279ZM39.9771 39.9723C42.1724 37.7713 42.5609 34.2541 40.4159 32.1091L34.7591 37.7659C34.2691 37.276 34.0579 36.7829 33.9654 36.4981C33.8567 36.1638 33.8206 35.84 33.8384 35.5422C33.878 34.8795 34.1697 34.4663 34.3129 34.3227L39.9771 39.9723ZM40.403 32.0962C38.2658 29.9784 34.7593 30.3413 32.5491 32.5516L38.2059 38.2084C38.0601 38.3542 37.6448 38.6469 36.9809 38.6866C36.6829 38.7044 36.3601 38.6682 36.0279 38.5604C35.744 38.4683 35.2574 38.2598 34.772 37.7788L40.403 32.0962ZM32.5491 32.5516C32.1925 32.9081 31.7038 33.1283 31.301 33.1686C31.1187 33.1868 30.9953 33.1648 30.9216 33.1407C30.8585 33.1201 30.7861 33.0844 30.6951 32.9932L25.0349 38.6468C29.2698 42.8866 35.2423 41.1721 38.2059 38.2084L32.5491 32.5516ZM27.8789 28.5604C28.7145 27.7245 29.3773 26.7323 29.8294 25.6402L22.4378 22.5801C22.3876 22.7014 22.3139 22.8117 22.2211 22.9046L27.8789 28.5604ZM29.8294 25.6402C30.2815 24.5482 30.5141 23.3778 30.5139 22.1959L22.5139 22.1973C22.5139 22.3287 22.4881 22.4587 22.4378 22.5801L29.8294 25.6402ZM30.5139 22.1959C30.5137 21.014 30.2807 19.8437 29.8282 18.7518L22.4377 21.8146C22.488 21.9359 22.5139 22.066 22.5139 22.1973L30.5139 22.1959ZM29.8282 18.7518C29.3757 17.66 28.7126 16.6679 27.8767 15.8323L22.2208 21.4902C22.3137 21.583 22.3874 21.6933 22.4377 21.8146L29.8282 18.7518ZM27.8767 15.8323C27.0408 14.9967 26.0485 14.334 24.9565 13.8819L21.8963 21.2734C22.0177 21.3237 22.1279 21.3973 22.2208 21.4902L27.8767 15.8323ZM24.9565 13.8819C23.8645 13.4298 22.6941 13.1972 21.5122 13.1974L21.5136 21.1974C21.6449 21.1974 21.775 21.2232 21.8963 21.2734L24.9565 13.8819ZM21.5122 13.1974C20.3302 13.1976 19.1599 13.4306 18.0681 13.8831L21.1309 21.2736C21.2522 21.2233 21.3822 21.1974 21.5136 21.1974L21.5122 13.1974ZM18.0681 13.8831C16.9762 14.3356 15.9842 14.9987 15.1486 15.8346L20.8064 21.4904C20.8993 21.3975 21.0095 21.3239 21.1309 21.2736L18.0681 13.8831ZM15.1486 15.8346C13.461 17.5227 12.5132 19.8121 12.5136 22.1991L20.5136 22.1977C20.5136 21.9324 20.6189 21.678 20.8064 21.4904L15.1486 15.8346ZM12.5136 22.1991C12.514 24.5861 13.4627 26.8751 15.1508 28.5627L20.8067 22.9048C20.6191 22.7173 20.5137 22.4629 20.5136 22.1977L12.5136 22.1991ZM15.1508 28.5627C16.839 30.2502 19.1284 31.1981 21.5153 31.1976L21.5139 23.1976C21.2487 23.1977 20.9943 23.0924 20.8067 22.9048L15.1508 28.5627ZM21.5153 31.1976C23.9023 31.1972 26.1914 30.2486 27.8789 28.5604L22.2211 22.9046C22.0336 23.0922 21.7792 23.1976 21.5139 23.1976L21.5153 31.1976Z" fill="#307510" mask="url(#path-1-outside-1_7_152)"/>
</svg>
