<svg width="60" height="60" viewBox="0 0 60 60" fill="none" xmlns="http://www.w3.org/2000/svg">
<g id="AutoBooster Restaurant - Main Page">
<rect width="1440" height="3000" transform="translate(-582 -900)" fill="white"/>
<g id="mdi:hot">
<path id="Vector" d="M44.15 28C43.575 27.25 42.875 26.6 42.225 25.95C40.55 24.45 38.65 23.375 37.05 21.8C33.325 18.15 32.5 12.125 34.875 7.5C32.5 8.075 30.425 9.375 28.65 10.8C22.175 16 19.625 25.175 22.675 33.05C22.775 33.3 22.875 33.55 22.875 33.875C22.875 34.425 22.5 34.925 22 35.125C21.425 35.375 20.825 35.225 20.35 34.825C20.2073 34.707 20.0885 34.5627 20 34.4C17.175 30.825 16.725 25.7 18.625 21.6C14.45 25 12.175 30.75 12.5 36.175C12.65 37.425 12.8 38.675 13.225 39.925C13.575 41.425 14.25 42.925 15 44.25C17.7 48.575 22.375 51.675 27.4 52.3C32.75 52.975 38.475 52 42.575 48.3C47.15 44.15 48.75 37.5 46.4 31.8L46.075 31.15C45.55 30 44.15 28 44.15 28ZM36.25 43.75C35.55 44.35 34.4 45 33.5 45.25C30.7 46.25 27.9 44.85 26.25 43.2C29.225 42.5 31 40.3 31.525 38.075C31.95 36.075 31.15 34.425 30.825 32.5C30.525 30.65 30.575 29.075 31.25 27.35C31.725 28.3 32.225 29.25 32.825 30C34.75 32.5 37.775 33.6 38.425 37C38.525 37.35 38.575 37.7 38.575 38.075C38.65 40.125 37.75 42.375 36.25 43.75Z" fill="#307510"/>
</g>
</g>
</svg>
